<?xml version="1.0" standalone="no"?>
<svg width="860" height="1150" version="1.1" xmlns="http://www.w3.org/2000/svg">
	<line x1="16.160000" y1="581.760000" x2="8.480000" y2="684.160000" stroke="orange" stroke-width="5" />
	<line x1="39.200000" y1="492.160000" x2="16.160000" y2="581.760000" stroke="orange" stroke-width="5" />
	<line x1="16.960000" y1="791.360000" x2="42.400000" y2="885.120000" stroke="orange" stroke-width="5" />
	<line x1="8.480000" y1="684.160000" x2="16.960000" y2="791.360000" stroke="orange" stroke-width="5" />
	<line x1="82.400000" y1="964.960000" x2="134.560000" y2="1030.400000" stroke="orange" stroke-width="5" />
	<line x1="42.400000" y1="885.120000" x2="82.400000" y2="964.960000" stroke="orange" stroke-width="5" />
	<line x1="197.600000" y1="1081.440000" x2="270.240000" y2="1118.080000" stroke="orange" stroke-width="5" />
	<line x1="134.560000" y1="1030.400000" x2="197.600000" y2="1081.440000" stroke="orange" stroke-width="5" />
	<line x1="350.080000" y1="1140.160000" x2="434.720000" y2="1147.520000" stroke="orange" stroke-width="5" />
	<line x1="270.240000" y1="1118.080000" x2="350.080000" y2="1140.160000" stroke="orange" stroke-width="5" />
	<line x1="518.080000" y1="1140.160000" x2="596.640000" y2="1118.080000" stroke="orange" stroke-width="5" />
	<line x1="434.720000" y1="1147.520000" x2="518.080000" y2="1140.160000" stroke="orange" stroke-width="5" />
	<line x1="668.160000" y1="1081.440000" x2="730.400000" y2="1030.400000" stroke="orange" stroke-width="5" />
	<line x1="596.640000" y1="1118.080000" x2="668.160000" y2="1081.440000" stroke="orange" stroke-width="5" />
	<line x1="782.080000" y1="964.960000" x2="821.920000" y2="885.120000" stroke="orange" stroke-width="5" />
	<line x1="730.400000" y1="1030.400000" x2="782.080000" y2="964.960000" stroke="orange" stroke-width="5" />
	<line x1="847.360000" y1="791.360000" x2="855.840000" y2="684.160000" stroke="orange" stroke-width="5" />
	<line x1="821.920000" y1="885.120000" x2="847.360000" y2="791.360000" stroke="orange" stroke-width="5" />
	<line x1="849.440000" y1="589.760000" x2="830.240000" y2="506.240000" stroke="orange" stroke-width="5" />
	<line x1="855.840000" y1="684.160000" x2="849.440000" y2="589.760000" stroke="orange" stroke-width="5" />
	<line x1="799.680000" y1="433.440000" x2="759.200000" y2="371.200000" stroke="orange" stroke-width="5" />
	<line x1="830.240000" y1="506.240000" x2="799.680000" y2="433.440000" stroke="orange" stroke-width="5" />
	<line x1="709.920000" y1="319.680000" x2="652.960000" y2="279.040000" stroke="orange" stroke-width="5" />
	<line x1="759.200000" y1="371.200000" x2="709.920000" y2="319.680000" stroke="orange" stroke-width="5" />
	<line x1="590.080000" y1="249.440000" x2="523.040000" y2="231.040000" stroke="orange" stroke-width="5" />
	<line x1="652.960000" y1="279.040000" x2="590.080000" y2="249.440000" stroke="orange" stroke-width="5" />
	<line x1="530.240000" y1="203.360000" x2="549.280000" y2="179.200000" stroke="orange" stroke-width="5" />
	<line x1="523.040000" y1="231.040000" x2="530.240000" y2="203.360000" stroke="orange" stroke-width="5" />
	<line x1="577.600000" y1="158.560000" x2="612.640000" y2="141.440000" stroke="orange" stroke-width="5" />
	<line x1="549.280000" y1="179.200000" x2="577.600000" y2="158.560000" stroke="orange" stroke-width="5" />
	<line x1="612.640000" y1="141.440000" x2="698.400000" y2="115.840000" stroke="orange" stroke-width="5" />
	<line x1="698.400000" y1="115.840000" x2="793.120000" y2="100.480000" stroke="orange" stroke-width="5" />
	<line x1="793.120000" y1="100.480000" x2="763.680000" y2="3.200000" stroke="orange" stroke-width="5" />
	<line x1="763.680000" y1="3.200000" x2="636.320000" y2="26.880000" stroke="orange" stroke-width="5" />
	<line x1="578.400000" y1="44.000000" x2="526.240000" y2="65.920000" stroke="orange" stroke-width="5" />
	<line x1="636.320000" y1="26.880000" x2="578.400000" y2="44.000000" stroke="orange" stroke-width="5" />
	<line x1="480.960000" y1="93.600000" x2="443.680000" y2="128.000000" stroke="orange" stroke-width="5" />
	<line x1="526.240000" y1="65.920000" x2="480.960000" y2="93.600000" stroke="orange" stroke-width="5" />
	<line x1="415.840000" y1="170.400000" x2="398.880000" y2="222.080000" stroke="orange" stroke-width="5" />
	<line x1="443.680000" y1="128.000000" x2="415.840000" y2="170.400000" stroke="orange" stroke-width="5" />
	<line x1="320.480000" y1="234.080000" x2="246.560000" y2="259.840000" stroke="orange" stroke-width="5" />
	<line x1="398.880000" y1="222.080000" x2="320.480000" y2="234.080000" stroke="orange" stroke-width="5" />
	<line x1="179.680000" y1="298.880000" x2="122.400000" y2="350.720000" stroke="orange" stroke-width="5" />
	<line x1="246.560000" y1="259.840000" x2="179.680000" y2="298.880000" stroke="orange" stroke-width="5" />
	<line x1="75.360000" y1="415.200000" x2="39.200000" y2="492.160000" stroke="orange" stroke-width="5" />
	<line x1="122.400000" y1="350.720000" x2="75.360000" y2="415.200000" stroke="orange" stroke-width="5" />
	<line x1="144.160000" y1="761.120000" x2="139.040000" y2="684.160000" stroke="orange" stroke-width="5" />
	<line x1="159.520000" y1="830.720000" x2="144.160000" y2="761.120000" stroke="orange" stroke-width="5" />
	<line x1="144.160000" y1="607.200000" x2="159.520000" y2="537.600000" stroke="orange" stroke-width="5" />
	<line x1="139.040000" y1="684.160000" x2="144.160000" y2="607.200000" stroke="orange" stroke-width="5" />
	<line x1="184.320000" y1="476.640000" x2="217.760000" y2="425.600000" stroke="orange" stroke-width="5" />
	<line x1="159.520000" y1="537.600000" x2="184.320000" y2="476.640000" stroke="orange" stroke-width="5" />
	<line x1="259.680000" y1="384.800000" x2="309.920000" y2="354.560000" stroke="orange" stroke-width="5" />
	<line x1="217.760000" y1="425.600000" x2="259.680000" y2="384.800000" stroke="orange" stroke-width="5" />
	<line x1="367.680000" y1="335.840000" x2="432.160000" y2="329.600000" stroke="orange" stroke-width="5" />
	<line x1="309.920000" y1="354.560000" x2="367.680000" y2="335.840000" stroke="orange" stroke-width="5" />
	<line x1="496.480000" y1="335.840000" x2="553.760000" y2="354.560000" stroke="orange" stroke-width="5" />
	<line x1="432.160000" y1="329.600000" x2="496.480000" y2="335.840000" stroke="orange" stroke-width="5" />
	<line x1="603.520000" y1="384.800000" x2="645.280000" y2="425.600000" stroke="orange" stroke-width="5" />
	<line x1="553.760000" y1="354.560000" x2="603.520000" y2="384.800000" stroke="orange" stroke-width="5" />
	<line x1="678.720000" y1="476.640000" x2="703.520000" y2="537.600000" stroke="orange" stroke-width="5" />
	<line x1="645.280000" y1="425.600000" x2="678.720000" y2="476.640000" stroke="orange" stroke-width="5" />
	<line x1="718.880000" y1="607.200000" x2="724.000000" y2="684.160000" stroke="orange" stroke-width="5" />
	<line x1="703.520000" y1="537.600000" x2="718.880000" y2="607.200000" stroke="orange" stroke-width="5" />
	<line x1="718.880000" y1="761.120000" x2="703.520000" y2="830.720000" stroke="orange" stroke-width="5" />
	<line x1="724.000000" y1="684.160000" x2="718.880000" y2="761.120000" stroke="orange" stroke-width="5" />
	<line x1="678.720000" y1="891.680000" x2="645.280000" y2="942.720000" stroke="orange" stroke-width="5" />
	<line x1="703.520000" y1="830.720000" x2="678.720000" y2="891.680000" stroke="orange" stroke-width="5" />
	<line x1="603.520000" y1="983.520000" x2="553.760000" y2="1013.760000" stroke="orange" stroke-width="5" />
	<line x1="645.280000" y1="942.720000" x2="603.520000" y2="983.520000" stroke="orange" stroke-width="5" />
	<line x1="496.480000" y1="1032.480000" x2="432.160000" y2="1038.720000" stroke="orange" stroke-width="5" />
	<line x1="553.760000" y1="1013.760000" x2="496.480000" y2="1032.480000" stroke="orange" stroke-width="5" />
	<line x1="367.680000" y1="1032.480000" x2="309.920000" y2="1013.760000" stroke="orange" stroke-width="5" />
	<line x1="432.160000" y1="1038.720000" x2="367.680000" y2="1032.480000" stroke="orange" stroke-width="5" />
	<line x1="259.680000" y1="983.520000" x2="217.760000" y2="942.720000" stroke="orange" stroke-width="5" />
	<line x1="309.920000" y1="1013.760000" x2="259.680000" y2="983.520000" stroke="orange" stroke-width="5" />
	<line x1="184.320000" y1="891.680000" x2="159.520000" y2="830.720000" stroke="orange" stroke-width="5" />
	<line x1="217.760000" y1="942.720000" x2="184.320000" y2="891.680000" stroke="orange" stroke-width="5" />
</svg>
