P2
37
47
255
000 000 000 000 000 000 000 000 000 000 000 000 000 000 000 000 000 000 000 000 000 000 000 000 000 000 000 000 000 000 000 000 000 000 000 000 000 
000 000 000 000 000 000 000 255 000 000 000 000 000 000 000 000 000 000 000 000 000 000 000 000 000 000 000 000 000 000 000 000 000 000 000 255 000 
000 255 000 000 000 000 000 255 000 000 000 000 000 000 000 000 000 000 000 000 000 000 000 000 000 000 000 000 255 000 000 000 000 000 000 255 000 
000 255 000 000 000 000 000 255 000 000 000 000 000 000 000 000 000 000 000 000 000 000 000 000 000 000 000 000 255 000 000 000 000 000 000 255 000 
000 255 000 000 000 000 000 255 000 000 000 000 000 000 000 000 000 000 000 000 000 000 000 000 000 000 000 000 255 000 000 000 000 000 000 255 000 
000 255 000 000 000 000 000 255 000 000 000 000 000 000 000 000 000 000 000 000 000 000 000 000 000 000 000 000 255 000 000 000 000 000 000 255 000 
000 255 000 000 000 000 000 255 000 000 000 000 000 000 000 000 000 000 000 000 000 000 000 000 000 000 000 000 255 000 000 000 000 000 000 255 000 
000 255 000 000 000 000 000 255 000 000 000 000 000 000 000 000 000 000 000 000 000 000 000 000 000 000 000 000 255 000 000 000 000 000 000 255 000 
000 255 000 000 000 000 000 255 000 000 000 000 000 000 000 000 000 000 000 000 000 000 000 000 000 000 000 000 255 000 000 000 000 000 000 255 000 
000 255 000 000 000 000 000 255 000 000 000 000 000 000 000 000 000 000 000 000 000 000 000 000 000 000 000 000 255 000 000 000 000 000 000 255 000 
000 255 000 000 000 000 000 255 000 000 000 000 000 000 000 000 000 000 000 000 000 000 000 000 000 000 000 000 255 000 000 000 000 000 000 255 000 
000 255 000 000 000 000 000 255 000 000 000 000 000 000 000 000 000 000 000 000 000 000 000 000 000 000 000 000 255 000 000 000 000 000 000 255 000 
000 255 000 000 000 000 000 255 000 000 000 000 000 000 000 000 000 000 000 000 000 000 000 000 000 000 000 000 255 000 000 000 000 000 000 255 000 
000 255 000 000 000 000 000 255 000 000 000 000 000 000 000 000 000 000 000 000 000 000 000 000 000 000 000 000 255 000 000 000 000 000 000 255 000 
000 255 000 000 000 000 000 255 000 000 000 000 000 000 000 000 000 000 000 000 000 000 000 000 000 000 000 000 255 000 000 000 000 000 000 255 000 
000 255 000 000 000 000 000 255 000 000 000 000 000 000 000 000 000 000 000 000 000 000 000 000 000 000 000 000 255 000 000 000 000 000 000 255 000 
000 255 000 000 000 000 000 255 000 000 000 000 000 000 000 000 000 000 000 000 000 000 000 000 000 000 000 000 255 000 000 000 000 000 000 255 000 
000 255 000 000 000 000 000 255 000 000 000 000 000 000 000 000 000 000 000 000 000 000 000 000 000 000 000 000 255 000 000 000 000 000 000 255 000 
000 255 000 000 000 000 000 255 000 000 000 000 000 000 000 000 000 000 000 000 000 000 000 000 000 000 000 000 255 000 000 000 000 000 000 255 000 
000 255 000 000 000 000 000 255 000 000 000 000 000 000 000 000 000 000 000 000 000 000 000 000 000 000 000 000 255 000 000 000 000 000 000 255 000 
000 255 000 000 000 000 000 255 000 000 000 000 000 000 000 000 000 000 000 000 000 000 000 000 000 000 000 000 255 000 000 000 000 000 000 255 000 
000 255 000 000 000 000 000 122 000 000 000 000 000 000 000 000 000 000 000 000 000 000 000 000 000 000 000 000 255 000 000 000 000 000 000 255 000 
000 255 000 000 000 000 000 000 000 000 000 000 000 000 000 000 000 000 000 000 000 000 000 000 000 000 000 000 000 000 000 000 000 000 000 255 000 
000 255 000 000 000 000 000 000 000 000 000 000 000 000 000 000 000 000 000 000 000 000 000 000 000 000 000 000 000 000 000 000 000 000 000 255 000 
000 255 000 000 000 000 000 000 000 000 000 000 000 000 000 000 000 000 000 000 000 000 000 000 000 000 000 000 000 000 000 000 000 000 000 255 000 
000 255 000 000 000 000 000 000 000 000 000 000 000 000 000 000 000 000 000 000 000 000 000 000 000 000 000 000 000 000 000 000 000 000 000 255 000 
000 255 000 000 000 000 000 037 000 000 000 000 000 000 000 000 000 000 000 000 000 000 000 000 000 000 000 000 037 000 000 000 000 000 000 255 000 
000 255 000 000 000 000 000 255 000 000 000 000 000 000 000 000 000 000 000 000 000 000 000 000 000 000 000 000 255 000 000 000 000 000 000 255 000 
000 255 000 000 000 000 000 255 000 000 000 000 000 000 000 000 000 000 000 000 000 000 000 000 000 000 000 000 255 000 000 000 000 000 000 255 000 
000 255 000 000 000 000 000 255 000 000 000 000 000 000 000 000 000 000 000 000 000 000 000 000 000 000 000 000 255 000 000 000 000 000 000 255 000 
000 255 000 000 000 000 000 255 000 000 000 000 000 000 000 000 000 000 000 000 000 000 000 000 000 000 000 000 255 000 000 000 000 000 000 255 000 
000 255 000 000 000 000 000 255 000 000 000 000 000 000 000 000 000 000 000 000 000 000 000 000 000 000 000 000 255 000 000 000 000 000 000 255 000 
000 255 000 000 000 000 000 255 000 000 000 000 000 000 000 000 000 000 000 000 000 000 000 000 000 000 000 000 255 000 000 000 000 000 000 255 000 
000 255 000 000 000 000 000 255 000 000 000 000 000 000 000 000 000 000 000 000 000 000 000 000 000 000 000 000 255 000 000 000 000 000 000 255 000 
000 255 000 000 000 000 000 255 000 000 000 000 000 000 000 000 000 000 000 000 000 000 000 000 000 000 000 000 255 000 000 000 000 000 000 255 000 
000 255 000 000 000 000 000 255 000 000 000 000 000 000 000 000 000 000 000 000 000 000 000 000 000 000 000 000 255 000 000 000 000 000 000 255 000 
000 255 000 000 000 000 000 255 000 000 000 000 000 000 000 000 000 000 000 000 000 000 000 000 000 000 000 000 255 000 000 000 000 000 000 255 000 
000 255 000 000 000 000 000 255 000 000 000 000 000 000 000 000 000 000 000 000 000 000 000 000 000 000 000 000 255 000 000 000 000 000 000 255 000 
000 255 000 000 000 000 000 255 000 000 000 000 000 000 000 000 000 000 000 000 000 000 000 000 000 000 000 000 255 000 000 000 000 000 000 255 000 
000 255 000 000 000 000 000 255 000 000 000 000 000 000 000 000 000 000 000 000 000 000 000 000 000 000 000 000 255 000 000 000 000 000 000 255 000 
000 255 000 000 000 000 000 255 000 000 000 000 000 000 000 000 000 000 000 000 000 000 000 000 000 000 000 000 255 000 000 000 000 000 000 255 000 
000 255 000 000 000 000 000 255 000 000 000 000 000 000 000 000 000 000 000 000 000 000 000 000 000 000 000 000 255 000 000 000 000 000 000 255 000 
000 255 000 000 000 000 000 255 000 000 000 000 000 000 000 000 000 000 000 000 000 000 000 000 000 000 000 000 255 000 000 000 000 000 000 255 000 
000 255 000 000 000 000 000 255 000 000 000 000 000 000 000 000 000 000 000 000 000 000 000 000 000 000 000 000 255 000 000 000 000 000 000 255 000 
000 255 000 000 000 000 000 255 000 000 000 000 000 000 000 000 000 000 000 000 000 000 000 000 000 000 000 000 255 000 000 000 000 000 000 255 000 
000 255 000 000 000 000 000 090 000 000 000 000 000 000 000 000 000 000 000 000 000 000 000 000 000 000 000 000 090 000 000 000 000 000 000 090 000 
000 000 000 000 000 000 000 000 000 000 000 000 000 000 000 000 000 000 000 000 000 000 000 000 000 000 000 000 000 000 000 000 000 000 000 000 000 
